<?xml version="1.0" encoding="UTF-8" standalone="no"?>
<svg
   xmlns:dc="http://purl.org/dc/elements/1.1/"
   xmlns:cc="http://creativecommons.org/ns#"
   xmlns:rdf="http://www.w3.org/1999/02/22-rdf-syntax-ns#"
   xmlns:svg="http://www.w3.org/2000/svg"
   xmlns="http://www.w3.org/2000/svg"
   width="512"
   height="512"
   viewBox="0 0 135.46667 135.46667"
   version="1.1"
   id="svg8">
  <defs
     id="defs2" />
  <metadata
     id="metadata5">
    <rdf:RDF>
      <cc:Work
         rdf:about="">
        <dc:format>image/svg+xml</dc:format>
        <dc:type
           rdf:resource="http://purl.org/dc/dcmitype/StillImage" />
        <dc:title></dc:title>
      </cc:Work>
    </rdf:RDF>
  </metadata>
  <g
     id="layer1"
     transform="translate(-24.661723,-40.024794)">
    <flowRoot
       xml:space="preserve"
       id="flowRoot10"
       style="font-style:normal;font-variant:normal;font-weight:normal;font-stretch:normal;font-size:40px;line-height:1.25;font-family:Orbitron;-inkscape-font-specification:Orbitron;letter-spacing:0px;word-spacing:0px;fill:#000000;fill-opacity:1;stroke:none"><flowRegion
         id="flowRegion12"><rect
           id="rect14"
           width="765.71429"
           height="182.85715"
           x="88.571426"
           y="259.66254" /></flowRegion><flowPara
         id="flowPara16" /></flowRoot>
    <g
       id="g861"
       transform="matrix(2.0847931,0,0,2.0228819,-19.276567,-4.9339864)">
      <path
         d="m 43.614204,45.033099 q 1.502492,0 2.556872,1.08074 1.080739,1.05438 1.080739,2.556871 V 60.321609 H 43.82508 V 48.67071 q 0,-0.184516 -0.210876,-0.184516 h -5.746371 q -0.158157,0 -0.158157,0.184516 V 60.321609 H 34.230222 V 48.67071 q 0,-0.184516 -0.158157,-0.184516 h -5.772731 q -0.184516,0 -0.184516,0.184516 v 11.650899 h -3.453095 v -15.28851 z"
         style="font-style:normal;font-variant:normal;font-weight:bold;font-stretch:normal;font-size:26.3595px;line-height:1.25;font-family:Orbitron;-inkscape-font-specification:'Orbitron Bold';letter-spacing:0px;word-spacing:0px;fill:#000000;fill-opacity:1;stroke:none;stroke-width:0.658988"
         id="path904" />
      <path
         d="m 61.222294,45.033099 q 1.502491,0 2.556871,1.08074 1.08074,1.05438 1.08074,2.556871 V 60.321609 H 52.97177 q -1.502492,0 -2.583231,-1.05438 -1.05438,-1.080739 -1.05438,-2.583231 V 50.937627 H 61.40681 V 48.67071 q 0,-0.184516 -0.184516,-0.184516 H 49.334159 v -3.453095 z m 0.184516,11.835416 v -2.451434 h -8.619557 v 2.266917 q 0,0.184517 0.184517,0.184517 z"
         style="font-style:normal;font-variant:normal;font-weight:bold;font-stretch:normal;font-size:26.3595px;line-height:1.25;font-family:Orbitron;-inkscape-font-specification:'Orbitron Bold';letter-spacing:0px;word-spacing:0px;fill:#000000;fill-opacity:1;stroke:none;stroke-width:0.658988"
         id="path906" />
      <path
         d="m 82.467972,62.746684 q 0,1.502491 -1.05438,2.556871 -1.05438,1.08074 -2.556872,1.08074 h -9.357622 v -3.479454 h 9.357622 q 0.158157,0 0.158157,-0.158157 v -2.425075 h -8.43504 q -1.502491,0 -2.583231,-1.05438 -1.05438,-1.080739 -1.05438,-2.583231 V 48.67071 q 0,-1.502491 1.05438,-2.556871 1.08074,-1.08074 2.583231,-1.08074 h 8.276883 q 1.502492,0 2.556872,1.08074 1.05438,1.05438 1.05438,2.556871 z M 70.579837,56.868515 h 8.276883 q 0.158157,0 0.158157,-0.184517 V 48.67071 q 0,-0.184516 -0.158157,-0.184516 h -8.276883 q -0.184516,0 -0.184516,0.184516 v 8.013288 q 0,0.184517 0.184516,0.184517 z"
         style="font-style:normal;font-variant:normal;font-weight:bold;font-stretch:normal;font-size:26.3595px;line-height:1.25;font-family:Orbitron;-inkscape-font-specification:'Orbitron Bold';letter-spacing:0px;word-spacing:0px;fill:#000000;fill-opacity:1;stroke:none;stroke-width:0.658988"
         id="path908" />
    </g>
  </g>
</svg>
