<?xml version="1.0" encoding="UTF-8" standalone="no"?>
<svg
   xmlns:dc="http://purl.org/dc/elements/1.1/"
   xmlns:cc="http://creativecommons.org/ns#"
   xmlns:rdf="http://www.w3.org/1999/02/22-rdf-syntax-ns#"
   xmlns:svg="http://www.w3.org/2000/svg"
   xmlns="http://www.w3.org/2000/svg"
   id="svg8"
   version="1.1"
   viewBox="0 0 11.493057 11.209467"
   height="42.366489"
   width="43.438324">
  <defs
     id="defs2" />
  <metadata
     id="metadata5">
    <rdf:RDF>
      <cc:Work
         rdf:about="">
        <dc:format>image/svg+xml</dc:format>
        <dc:type
           rdf:resource="http://purl.org/dc/dcmitype/StillImage" />
        <dc:title></dc:title>
      </cc:Work>
    </rdf:RDF>
  </metadata>
  <g
     transform="translate(-7.2972489,98.757232)"
     id="layer1">
    <path
       d="m 13.043294,-98.757232 c -3.1728841,0 -5.7460451,2.572808 -5.7460451,5.74675 0,2.538589 1.646414,4.692651 3.9299441,5.452887 0.287514,0.05256 0.392289,-0.124884 0.392289,-0.277284 0,-0.136525 -0.0049,-0.497769 -0.0078,-0.977194 -1.598436,0.347133 -1.9356921,-0.770467 -1.9356921,-0.770467 -0.261408,-0.663928 -0.638175,-0.840669 -0.638175,-0.840669 -0.521758,-0.356306 0.03951,-0.34925 0.03951,-0.34925 0.576792,0.04057 0.880181,0.592314 0.880181,0.592314 0.5125861,0.878063 1.3451421,0.624416 1.6725201,0.477308 0.05221,-0.371122 0.20073,-0.624417 0.364772,-0.767997 -1.275997,-0.145345 -2.6176111,-0.638175 -2.6176111,-2.840214 0,-0.627592 0.224014,-1.140178 0.591608,-1.541992 -0.05927,-0.145345 -0.256469,-0.729545 0.05644,-1.520825 0,0 0.482248,-0.154517 1.580092,0.588786 0.458259,-0.127353 0.950031,-0.190853 1.438628,-0.193322 0.488245,0.0025 0.979664,0.06597 1.438628,0.193322 1.097139,-0.743303 1.578681,-0.588786 1.578681,-0.588786 0.313619,0.79128 0.116416,1.37548 0.0575,1.520825 0.3683,0.401814 0.59055,0.9144 0.59055,1.541992 0,2.207683 -1.34373,2.693458 -2.623608,2.835628 0.206022,0.177447 0.389819,0.528108 0.389819,1.06433 0,0.767997 -0.0071,1.387828 -0.0071,1.576211 0,0.153811 0.103716,0.33267 0.395111,0.276578 2.281767,-0.761647 3.92677,-2.913944 3.92677,-5.452181 0,-3.173942 -2.573162,-5.74675 -5.747103,-5.74675"
       style="opacity:1;fill:#1b1817;fill-opacity:1;fill-rule:evenodd;stroke:none;stroke-width:0.0352778;stop-opacity:1"
       id="path844" />
  </g>
</svg>
