<?xml version="1.0" encoding="UTF-8" standalone="no"?>
<svg
   xmlns:dc="http://purl.org/dc/elements/1.1/"
   xmlns:cc="http://creativecommons.org/ns#"
   xmlns:rdf="http://www.w3.org/1999/02/22-rdf-syntax-ns#"
   xmlns:svg="http://www.w3.org/2000/svg"
   xmlns="http://www.w3.org/2000/svg"
   xmlns:sodipodi="http://sodipodi.sourceforge.net/DTD/sodipodi-0.dtd"
   xmlns:inkscape="http://www.inkscape.org/namespaces/inkscape"
   width="153.06931mm"
   height="26.359501mm"
   viewBox="0 0 153.06931 26.359501"
   version="1.1"
   id="svg8"
   inkscape:version="1.0.2 (1.0.2+r75+1)"
   sodipodi:docname="maglogo2021.svg">
  <defs
     id="defs2" />
  <sodipodi:namedview
     id="base"
     pagecolor="#ffffff"
     bordercolor="#666666"
     borderopacity="1.0"
     inkscape:pageopacity="0.0"
     inkscape:pageshadow="2"
     inkscape:zoom="1.8975569"
     inkscape:cx="493.40984"
     inkscape:cy="170.61052"
     inkscape:document-units="mm"
     inkscape:current-layer="layer1"
     showgrid="false"
     showguides="true"
     inkscape:guide-bbox="true"
     inkscape:object-paths="true"
     inkscape:snap-object-midpoints="true"
     inkscape:snap-text-baseline="true"
     inkscape:snap-global="true"
     inkscape:snap-bbox="true"
     inkscape:bbox-nodes="true"
     inkscape:bbox-paths="true"
     inkscape:snap-bbox-midpoints="true"
     inkscape:snap-nodes="false"
     inkscape:snap-center="true"
     inkscape:window-width="3840"
     inkscape:window-height="1527"
     inkscape:window-x="0"
     inkscape:window-y="49"
     inkscape:window-maximized="1"
     inkscape:document-rotation="0"
     fit-margin-top="0"
     fit-margin-left="0"
     fit-margin-right="0"
     fit-margin-bottom="0" />
  <metadata
     id="metadata5">
    <rdf:RDF>
      <cc:Work
         rdf:about="">
        <dc:format>image/svg+xml</dc:format>
        <dc:type
           rdf:resource="http://purl.org/dc/dcmitype/StillImage" />
        <dc:title></dc:title>
      </cc:Work>
    </rdf:RDF>
  </metadata>
  <g
     inkscape:label="Layer 1"
     inkscape:groupmode="layer"
     id="layer1"
     transform="translate(-24.661723,-40.024794)">
    <flowRoot
       xml:space="preserve"
       id="flowRoot10"
       style="font-style:normal;font-variant:normal;font-weight:normal;font-stretch:normal;font-size:40px;line-height:1.25;font-family:Orbitron;-inkscape-font-specification:Orbitron;letter-spacing:0px;word-spacing:0px;fill:#000000;fill-opacity:1;stroke:none"><flowRegion
         id="flowRegion12"><rect
           id="rect14"
           width="765.71429"
           height="182.85715"
           x="88.571426"
           y="259.66254" /></flowRegion><flowPara
         id="flowPara16" /></flowRoot>
    <g
       aria-label="magdesign"
       id="text20-1"
       style="font-style:normal;font-variant:normal;font-weight:normal;font-stretch:normal;font-size:26.3595px;line-height:1.25;font-family:Orbitron;-inkscape-font-specification:Orbitron;letter-spacing:0px;word-spacing:0px;fill:#000000;fill-opacity:1;stroke:none;stroke-width:0.658988">
      <path
         d="m 43.614204,45.033099 q 1.502492,0 2.556872,1.08074 1.080739,1.05438 1.080739,2.556871 V 60.321609 H 43.82508 V 48.67071 q 0,-0.184516 -0.210876,-0.184516 h -5.746371 q -0.158157,0 -0.158157,0.184516 V 60.321609 H 34.230222 V 48.67071 q 0,-0.184516 -0.158157,-0.184516 h -5.772731 q -0.184516,0 -0.184516,0.184516 v 11.650899 h -3.453095 v -15.28851 z"
         style="font-style:normal;font-variant:normal;font-weight:bold;font-stretch:normal;font-family:Orbitron;-inkscape-font-specification:'Orbitron Bold';stroke-width:0.658988"
         id="path904" />
      <path
         d="m 61.222294,45.033099 q 1.502491,0 2.556871,1.08074 1.08074,1.05438 1.08074,2.556871 V 60.321609 H 52.97177 q -1.502492,0 -2.583231,-1.05438 -1.05438,-1.080739 -1.05438,-2.583231 V 50.937627 H 61.40681 V 48.67071 q 0,-0.184516 -0.184516,-0.184516 H 49.334159 v -3.453095 z m 0.184516,11.835416 v -2.451434 h -8.619557 v 2.266917 q 0,0.184517 0.184517,0.184517 z"
         style="font-style:normal;font-variant:normal;font-weight:bold;font-stretch:normal;font-family:Orbitron;-inkscape-font-specification:'Orbitron Bold';stroke-width:0.658988"
         id="path906" />
      <path
         d="m 82.467972,62.746684 q 0,1.502491 -1.05438,2.556871 -1.05438,1.08074 -2.556872,1.08074 h -9.357622 v -3.479454 h 9.357622 q 0.158157,0 0.158157,-0.158157 v -2.425075 h -8.43504 q -1.502491,0 -2.583231,-1.05438 -1.05438,-1.080739 -1.05438,-2.583231 V 48.67071 q 0,-1.502491 1.05438,-2.556871 1.08074,-1.08074 2.583231,-1.08074 h 8.276883 q 1.502492,0 2.556872,1.08074 1.05438,1.05438 1.05438,2.556871 z M 70.579837,56.868515 h 8.276883 q 0.158157,0 0.158157,-0.184517 V 48.67071 q 0,-0.184516 -0.158157,-0.184516 h -8.276883 q -0.184516,0 -0.184516,0.184516 v 8.013288 q 0,0.184517 0.184516,0.184517 z"
         style="font-style:normal;font-variant:normal;font-weight:bold;font-stretch:normal;font-family:Orbitron;-inkscape-font-specification:'Orbitron Bold';stroke-width:0.658988"
         id="path908" />
      <path
         d="m 97.888247,40.024794 h 2.161483 V 60.321609 H 87.68712 q -1.344335,0 -2.293277,-0.922582 -0.922582,-0.948942 -0.922582,-2.266917 v -8.909511 q 0,-1.317975 0.922582,-2.240558 0.948942,-0.948942 2.293277,-0.948942 H 97.888247 Z M 87.68712,58.16013 h 9.173106 q 0.421752,0 0.711707,-0.289954 0.316314,-0.316314 0.316314,-0.738066 v -8.909511 q 0,-0.421752 -0.316314,-0.711707 -0.289955,-0.316314 -0.711707,-0.316314 H 87.68712 q -0.421752,0 -0.738066,0.316314 -0.289955,0.289955 -0.289955,0.711707 v 8.909511 q 0,0.421752 0.289955,0.738066 0.316314,0.289954 0.738066,0.289954 z"
         style="stroke-width:0.658988"
         id="path910" />
      <path
         d="m 114.62651,45.033099 q 1.34433,0 2.26692,0.948942 0.94894,0.922583 0.94894,2.240558 v 5.535495 h -13.41699 v 3.374016 q 0,0.421752 0.28996,0.738066 0.31631,0.289954 0.73806,0.289954 h 12.38897 v 2.161479 H 105.4534 q -1.31797,0 -2.26691,-0.922582 -0.92259,-0.948942 -0.92259,-2.266917 v -8.909511 q 0,-1.317975 0.92259,-2.240558 0.94894,-0.948942 2.26691,-0.948942 z m -10.20113,6.563516 h 11.22915 v -3.374016 q 0,-0.421752 -0.31631,-0.711707 -0.28996,-0.316314 -0.71171,-0.316314 h -9.17311 q -0.42175,0 -0.73806,0.316314 -0.28996,0.289955 -0.28996,0.711707 z"
         style="stroke-width:0.658988"
         id="path912" />
      <path
         d="m 136.00405,48.222599 v 0.210876 h -2.18784 v -0.210876 q 0,-0.421752 -0.31631,-0.711707 -0.28996,-0.316314 -0.71171,-0.316314 h -9.1731 q -0.42176,0 -0.73807,0.316314 -0.28996,0.289955 -0.28996,0.711707 v 2.345995 q 0,0.421752 0.28996,0.738066 0.31631,0.289955 0.73807,0.289955 h 9.1731 q 1.34434,0 2.26692,0.948942 0.94894,0.922582 0.94894,2.240557 v 2.345996 q 0,1.317975 -0.94894,2.266917 -0.92258,0.922582 -2.26692,0.922582 h -9.1731 q -1.31798,0 -2.26692,-0.922582 -0.92258,-0.948942 -0.92258,-2.266917 v -0.210876 h 2.16147 v 0.210876 q 0,0.421752 0.28996,0.738066 0.31631,0.289954 0.73807,0.289954 h 9.1731 q 0.42175,0 0.71171,-0.289954 0.31631,-0.316314 0.31631,-0.738066 v -2.345996 q 0,-0.421752 -0.31631,-0.711706 -0.28996,-0.316314 -0.71171,-0.316314 h -9.1731 q -1.31798,0 -2.26692,-0.922583 -0.92258,-0.948942 -0.92258,-2.266917 v -2.345995 q 0,-1.317975 0.92258,-2.240558 0.94894,-0.948942 2.26692,-0.948942 h 9.1731 q 1.34434,0 2.26692,0.948942 0.94894,0.922583 0.94894,2.240558 z"
         style="stroke-width:0.658988"
         id="path914" />
      <path
         d="m 138.61361,60.321609 v -15.28851 h 2.16148 v 15.28851 z m 0,-20.296815 h 2.16148 v 2.161479 h -2.16148 z"
         style="stroke-width:0.658988"
         id="path916" />
      <path
         d="m 159.3585,63.142076 q 0,1.344335 -0.92258,2.266917 -0.92259,0.948942 -2.26692,0.948942 h -9.54214 v -2.187838 h 9.54214 q 0.42175,0 0.7117,-0.316314 0.31632,-0.289955 0.31632,-0.711707 v -2.820467 h -10.20113 q -1.31797,0 -2.26692,-0.922582 -0.92258,-0.948942 -0.92258,-2.266917 v -8.909511 q 0,-1.317975 0.92258,-2.240558 0.94895,-0.948942 2.26692,-0.948942 h 9.17311 q 1.34433,0 2.26692,0.948942 0.92258,0.922583 0.92258,2.240558 z M 146.99589,58.16013 h 9.17311 q 0.42175,0 0.7117,-0.289954 0.31632,-0.316314 0.31632,-0.738066 v -8.909511 q 0,-0.421752 -0.31632,-0.711707 -0.28995,-0.316314 -0.7117,-0.316314 h -9.17311 q -0.42175,0 -0.73806,0.316314 -0.28996,0.289955 -0.28996,0.711707 v 8.909511 q 0,0.421752 0.28996,0.738066 0.31631,0.289954 0.73806,0.289954 z"
         style="stroke-width:0.658988"
         id="path918" />
      <path
         d="m 174.54153,45.033099 q 1.31798,0 2.24056,0.948942 0.94894,0.922583 0.94894,2.240558 v 12.09901 h -2.16148 v -12.09901 q 0,-0.421752 -0.31631,-0.711707 -0.28995,-0.316314 -0.71171,-0.316314 h -9.1731 q -0.42176,0 -0.73807,0.316314 -0.31631,0.289955 -0.31631,0.711707 v 12.09901 h -2.16148 v -15.28851 z"
         style="stroke-width:0.658988"
         id="path920" />
    </g>
  </g>
</svg>
