<?xml version="1.0" encoding="UTF-8" standalone="no"?>
<svg
   xmlns:dc="http://purl.org/dc/elements/1.1/"
   xmlns:cc="http://creativecommons.org/ns#"
   xmlns:rdf="http://www.w3.org/1999/02/22-rdf-syntax-ns#"
   xmlns:svg="http://www.w3.org/2000/svg"
   xmlns="http://www.w3.org/2000/svg"
   xmlns:sodipodi="http://sodipodi.sourceforge.net/DTD/sodipodi-0.dtd"
   xmlns:inkscape="http://www.inkscape.org/namespaces/inkscape"
   inkscape:version="1.0beta1 (fe3e306, 2019-09-17)"
   sodipodi:docname="maglogo2017_black.svg"
   version="1.1"
   id="svg2"
   xml:space="preserve"
   width="1993.0426"
   height="585.75177"
   viewBox="0 0 1993.0426 585.75177">
  <sodipodi:namedview
     inkscape:document-rotation="0"
     inkscape:current-layer="svg2"
     inkscape:window-maximized="1"
     inkscape:window-y="30"
     inkscape:window-x="0"
     inkscape:cy="548.57144"
     inkscape:cx="-117.14287"
     inkscape:zoom="0.35"
     showgrid="false"
     id="namedview30"
     inkscape:window-height="1546"
     inkscape:window-width="3840"
     inkscape:pageshadow="2"
     inkscape:pageopacity="0"
     guidetolerance="10"
     gridtolerance="10"
     objecttolerance="10"
     borderopacity="1"
     bordercolor="#666666"
     pagecolor="#ffffff" />
  <metadata
     id="metadata8">
    <rdf:RDF>
      <cc:Work
         rdf:about="">
        <dc:format>image/svg+xml</dc:format>
        <dc:type
           rdf:resource="http://purl.org/dc/dcmitype/StillImage" />
        <dc:title></dc:title>
      </cc:Work>
    </rdf:RDF>
  </metadata>
  <defs
     id="defs6">
    <clipPath
       clipPathUnits="userSpaceOnUse"
       id="clipPath18">
      <path
         inkscape:connector-curvature="0"
         d="M 0,1190.55 H 841.89 V 0 H 0 Z"
         id="path16" />
    </clipPath>
  </defs>
  <g
     style="fill:#000000"
     id="g10"
     transform="matrix(4.0482577,0,0,-4.0482577,-484.82825,3840.1005)">
    <g
       style="fill:#000000"
       id="g20"
       transform="translate(584.4072,948.5635)">
      <path
         inkscape:connector-curvature="0"
         d="m 0,0 -434.83,-31.323 c -23.307,-0.841 -29.289,-13.948 -29.289,-22.553 0,-2.22 -0.019,-3.325 -0.019,-3.325 1.989,7.131 9.182,15.999 27.409,16.337 30.082,0.562 415.414,11.275 415.414,11.275 16.738,0.696 22.981,-7.296 18.638,-23.077 0,0 -15.176,-53.672 -21.586,-69.844 -2.453,-6.195 -15.3,-19.443 -26.918,-22.011 l 4.369,-0.138 c 16.294,-0.502 34.419,11.043 40.479,25.79 L 25.888,-36.97 C 31.946,-22.222 22.437,0.742 0,0"
         style="fill:#000000;fill-opacity:1;fill-rule:nonzero;stroke:none"
         id="path22" />
    </g>
    <g
       style="fill:#000000"
       id="g24"
       transform="translate(553.8604,889.5122)">
      <path
         inkscape:connector-curvature="0"
         d="m 0,0 c -0.213,0.082 -0.512,0.122 -0.897,0.122 h -0.374 v -1.711 h 0.599 c 0.36,0 0.643,0.072 0.843,0.216 0.205,0.145 0.303,0.378 0.303,0.701 C 0.474,-0.35 0.316,-0.126 0,0 m -2.818,-4.738 v 5.901 c 0.367,0 0.913,-0.002 1.643,-0.004 C -0.443,1.157 -0.04,1.153 0.04,1.147 0.51,1.114 0.897,1.013 1.203,0.845 1.729,0.556 1.99,0.087 1.99,-0.563 1.99,-1.06 1.854,-1.418 1.577,-1.638 1.299,-1.859 0.959,-1.991 0.554,-2.034 0.926,-2.111 1.203,-2.225 1.392,-2.375 1.739,-2.655 1.914,-3.097 1.914,-3.698 v -0.527 c 0,-0.058 0.001,-0.115 0.01,-0.173 0.008,-0.059 0.021,-0.116 0.042,-0.174 L 2.021,-4.738 H 0.547 C 0.499,-4.55 0.466,-4.278 0.45,-3.922 0.433,-3.566 0.401,-3.325 0.353,-3.2 c -0.077,0.207 -0.222,0.351 -0.435,0.433 -0.115,0.049 -0.29,0.08 -0.525,0.095 l -0.341,0.021 H -1.271 V -4.738 Z M -3.611,1.307 C -4.46,0.44 -4.882,-0.588 -4.882,-1.777 c 0,-1.233 0.43,-2.28 1.29,-3.142 0.858,-0.861 1.892,-1.292 3.107,-1.292 1.208,0 2.24,0.433 3.099,1.299 0.856,0.872 1.283,1.916 1.283,3.135 0,1.185 -0.424,2.213 -1.278,3.084 -0.86,0.886 -1.896,1.329 -3.104,1.329 -1.223,0 -2.265,-0.443 -3.126,-1.329 M 3.242,-5.597 C 2.207,-6.6 0.964,-7.1 -0.485,-7.1 c -1.496,0 -2.757,0.513 -3.786,1.538 -1.025,1.026 -1.539,2.288 -1.539,3.785 0,1.555 0.556,2.848 1.664,3.878 1.04,0.963 2.26,1.445 3.661,1.445 1.468,0 2.723,-0.521 3.762,-1.56 1.039,-1.041 1.56,-2.295 1.56,-3.763 0,-1.513 -0.531,-2.785 -1.595,-3.82"
         style="fill:#000000;fill-opacity:1;fill-rule:nonzero;stroke:none"
         id="path26" />
    </g>
    <g
       style="fill:#000000"
       id="g28"
       transform="translate(144.3672,840.0298)">
      <path
         inkscape:connector-curvature="0"
         d="M 0,0 V 29.455 H -14.833 V 0 h -9.772 v 39.297 h 44.217 c 8.226,0 14.763,-6.608 14.763,-14.692 V 0 h -9.842 v 24.605 c 0,2.671 -2.178,4.85 -4.921,4.85 H 9.771 V 0 Z"
         style="fill:#000000;fill-opacity:1;fill-rule:nonzero;stroke:none"
         id="path30" />
    </g>
    <g
       style="fill:#000000"
       id="g32"
       transform="translate(195.3936,849.8018)">
      <path
         inkscape:connector-curvature="0"
         d="M 0,0 H 19.914 V 4.921 H 0 C -1.335,4.921 -2.459,3.866 -2.459,2.459 -2.459,1.125 -1.335,0 0,0 m 0,-9.772 c -6.818,0 -12.301,5.483 -12.301,12.231 0,6.82 5.483,12.374 12.301,12.374 h 19.914 c 0,2.671 -2.179,4.85 -4.921,4.85 H -9.102 v 9.842 h 24.095 c 8.154,0 14.762,-6.608 14.762,-14.692 V -9.772 Z"
         style="fill:#000000;fill-opacity:1;fill-rule:nonzero;stroke:none"
         id="path34" />
    </g>
    <g
       style="fill:#000000"
       id="g36"
       transform="translate(240.3037,854.7227)">
      <path
         inkscape:connector-curvature="0"
         d="M 0,0 C 0,-2.672 2.178,-4.921 4.921,-4.921 H 22.373 V 14.762 H 4.921 C 2.178,14.762 0,12.583 0,9.913 Z m 4.921,24.604 h 27.225 v -39.297 c 0,-8.155 -6.61,-14.833 -14.694,-14.833 H -6.714 v 9.912 h 24.166 c 2.672,0 4.921,2.18 4.921,4.921 H 4.921 c -8.155,0 -14.834,6.538 -14.834,14.693 v 9.913 c 0,8.084 6.679,14.691 14.834,14.691"
         style="fill:#000000;fill-opacity:1;fill-rule:nonzero;stroke:none"
         id="path38" />
    </g>
    <g
       style="fill:#000000"
       id="g40"
       transform="translate(336.9189,869.4849)">
      <path
         inkscape:connector-curvature="0"
         d="m 0,0 h -17.453 c -2.742,0 -4.922,-2.179 -4.922,-4.85 v -9.912 c 0,-2.672 2.18,-4.921 4.922,-4.921 H 0 Z m 0,25.737 h 9.771 v -55.192 h -27.224 c -8.225,0 -14.834,6.538 -14.834,14.693 v 9.912 c 0,8.084 6.609,14.692 14.834,14.692 L 0,9.842 Z"
         style="fill:#000000;fill-opacity:1;fill-rule:nonzero;stroke:none"
         id="path42" />
    </g>
    <g
       style="fill:#000000"
       id="g44"
       transform="translate(438.3945,879.3979)">
      <path
         inkscape:connector-curvature="0"
         d="m 0,0 v -9.842 h -28.688 c -1.335,0 -2.459,-1.054 -2.459,-2.39 0,-1.406 1.124,-2.46 2.459,-2.46 h 17.454 c 6.818,0 12.301,-5.554 12.301,-12.374 0,-6.748 -5.483,-12.231 -12.301,-12.231 h -28.689 v 9.772 h 28.689 c 1.335,0 2.46,1.124 2.46,2.459 0,1.406 -1.125,2.462 -2.46,2.462 h -17.454 c -6.818,0 -12.301,5.482 -12.301,12.372 0,6.749 5.483,12.232 12.301,12.232 z"
         style="fill:#000000;fill-opacity:1;fill-rule:nonzero;stroke:none"
         id="path46" />
    </g>
    <path
       inkscape:connector-curvature="0"
       d="m 452.828,840.03 h -9.912 v 39.438 h 9.912 z"
       style="fill:#000000;fill-opacity:1;fill-rule:nonzero;stroke:none"
       id="path48" />
    <g
       style="fill:#000000"
       id="g50"
       transform="translate(467.9824,854.7227)">
      <path
         inkscape:connector-curvature="0"
         d="M 0,0 C 0,-2.672 2.182,-4.921 4.922,-4.921 H 22.373 V 14.762 H 4.922 C 2.182,14.762 0,12.583 0,9.913 Z m 4.922,24.604 h 27.224 v -39.297 c 0,-8.155 -6.61,-14.833 -14.693,-14.833 H -6.713 v 9.912 h 24.166 c 2.671,0 4.92,2.18 4.92,4.921 H 4.922 c -8.155,0 -14.833,6.538 -14.833,14.693 v 9.913 c 0,8.084 6.678,14.691 14.833,14.691"
         style="fill:#000000;fill-opacity:1;fill-rule:nonzero;stroke:none"
         id="path52" />
    </g>
    <g
       style="fill:#000000"
       id="g54"
       transform="translate(516.0361,840.0298)">
      <path
         inkscape:connector-curvature="0"
         d="m 0,0 h -9.771 v 39.297 h 27.223 c 8.155,0 14.833,-6.608 14.833,-14.692 V 0 h -9.912 v 24.605 c 0,2.671 -2.179,4.85 -4.921,4.85 H 0 Z"
         style="fill:#000000;fill-opacity:1;fill-rule:nonzero;stroke:none"
         id="path56" />
    </g>
    <path
       inkscape:connector-curvature="0"
       d="m 452.828,885.209 h -9.912 v 10.012 h 9.912 z"
       style="fill:#000000;fill-opacity:1;fill-rule:nonzero;stroke:none"
       id="path58" />
    <g
       style="fill:#000000"
       id="g60"
       transform="translate(384.2969,864.5894)">
      <path
         inkscape:connector-curvature="0"
         d="m 0,0 0.001,2.563 c 0,1.413 -1.161,2.564 -2.588,2.564 H -19.95 c -1.427,0 -2.587,-1.151 -2.587,-2.564 V 0 Z m -19.95,-24.489 c -6.846,0 -12.416,5.493 -12.416,12.245 V 2.563 c 0,6.751 5.57,12.246 12.416,12.246 H -2.587 C 4.26,14.809 9.83,9.314 9.83,2.563 V -9.681 h -32.367 v -2.563 c 0,-1.383 1.16,-2.51 2.587,-2.51 H 8.764 v -9.735 z"
         style="fill:#000000;fill-opacity:1;fill-rule:nonzero;stroke:none"
         id="path62" />
    </g>
  </g>
</svg>
