<?xml version="1.0" encoding="UTF-8" standalone="no"?>
<svg
   xmlns:dc="http://purl.org/dc/elements/1.1/"
   xmlns:cc="http://creativecommons.org/ns#"
   xmlns:rdf="http://www.w3.org/1999/02/22-rdf-syntax-ns#"
   xmlns:svg="http://www.w3.org/2000/svg"
   xmlns="http://www.w3.org/2000/svg"
   width="183.84776"
   height="183.84772"
   viewBox="0 0 48.643053 48.643041"
   version="1.1"
   id="svg8">
  <defs
     id="defs2" />
  <metadata
     id="metadata5">
    <rdf:RDF>
      <cc:Work
         rdf:about="">
        <dc:format>image/svg+xml</dc:format>
        <dc:type
           rdf:resource="http://purl.org/dc/dcmitype/StillImage" />
        <dc:title></dc:title>
      </cc:Work>
    </rdf:RDF>
  </metadata>
  <path
     id="path4718"
     d="M 48.643051,24.32152 A 24.321523,24.321523 0 0 1 24.321531,48.64304 24.321523,24.321523 0 0 1 0,24.32152 24.321523,24.321523 0 0 1 24.321531,0 24.321523,24.321523 0 0 1 48.643051,24.32152 Z"
     style="opacity:1;fill:#000000;stroke:#000000;stroke-width:0;stroke-linejoin:bevel;stroke-miterlimit:4;stroke-dasharray:none;stop-opacity:1" />
  <g
     style="opacity:1;fill:#ffffff;stop-opacity:1"
     transform="matrix(1.353738,0,0,1.353738,4.511603,4.51159)"
     id="g4716">
    <g
       style="fill:#ffffff"
       id="g4645">
      <path
         style="fill:#ffffff"
         d="m 25.925,13.574 c 0.405,0.173 0.928,0.295 1.571,0.366 0.295,0.025 0.579,0.036 0.86,0.036 0.326,0 0.632,-0.018 0.911,-0.054 -0.351,0.329 -0.803,0.614 -1.349,0.857 -0.552,0.244 -1.262,0.365 -2.138,0.365 -0.401,1.498 -1.144,2.844 -2.23,4.028 -1.082,1.188 -2.37,2.169 -3.862,2.943 -1.492,0.774 -3.131,1.312 -4.926,1.617 -1.01,0.182 -2.019,0.272 -3.033,0.272 -0.765,0 -1.533,-0.055 -2.297,-0.164 C 7.661,23.61 5.96,23.07 4.314,22.223 2.669,21.378 1.232,20.169 0,18.599 c 0.696,0.62 1.508,1.101 2.433,1.435 0.925,0.333 1.886,0.503 2.884,0.503 0.999,0 1.981,-0.183 2.944,-0.54 0.96,-0.358 1.824,-0.917 2.594,-1.672 -0.146,0.023 -0.292,0.036 -0.441,0.036 -0.279,0 -0.534,-0.049 -0.764,-0.146 C 9.283,18.069 9.03,17.87 8.893,17.621 8.751,17.372 8.751,17.097 8.893,16.798 9.03,16.5 9.386,16.236 9.96,16.006 9.764,16.027 9.573,16.04 9.394,16.04 9.111,16.04 8.85,16.016 8.611,15.97 8.205,15.895 7.857,15.77 7.559,15.595 7.256,15.416 7.012,15.225 6.816,15.018 6.622,14.81 6.457,14.589 6.322,14.358 6.568,14.139 6.84,13.972 7.145,13.859 7.45,13.743 7.851,13.671 8.35,13.648 7.232,13.405 6.433,13.042 5.959,12.57 5.484,12.095 5.182,11.548 5.064,10.927 5.394,10.876 5.721,10.819 6.058,10.753 6.391,10.684 6.658,10.677 6.854,10.724 5.901,10.249 5.24,9.695 4.86,9.062 4.533,8.503 4.368,7.977 4.368,7.49 c 0,-0.061 0.006,-0.127 0.019,-0.201 1.717,0.598 3.163,1.147 4.337,1.644 1.177,0.501 2.221,0.988 3.134,1.465 0.353,0.142 0.704,0.361 1.06,0.655 l 1.151,0.989 c 0.245,-0.648 0.521,-1.289 0.837,-1.929 0.321,-0.641 0.658,-1.253 1.017,-1.837 0.359,-0.583 0.762,-1.121 1.213,-1.608 0.451,-0.485 0.964,-0.885 1.534,-1.205 -0.023,0.278 -0.167,0.555 -0.436,0.822 0.33,-0.278 0.685,-0.503 1.067,-0.677 0.387,-0.17 0.792,-0.283 1.216,-0.345 -0.049,0.28 -0.248,0.51 -0.604,0.685 -0.353,0.177 -0.661,0.314 -0.93,0.41 0.096,-0.023 0.29,-0.087 0.574,-0.189 0.287,-0.104 0.592,-0.2 0.915,-0.283 0.326,-0.086 0.615,-0.144 0.879,-0.164 0.26,-0.025 0.417,0.021 0.464,0.145 0.072,0.146 0.03,0.271 -0.127,0.374 -0.157,0.104 -0.351,0.19 -0.577,0.267 C 20.889,6.58 20.66,6.639 20.438,6.69 20.211,6.74 20.063,6.776 19.991,6.798 l -0.677,0.237 c 0.133,-0.013 0.268,-0.018 0.401,-0.018 0.559,0 1.11,0.084 1.644,0.255 0.659,0.208 1.262,0.525 1.81,0.953 0.546,0.423 1.029,0.924 1.441,1.497 0.414,0.573 0.719,1.187 0.914,1.844 l 0.074,0.293 c 0.021,0.097 0.048,0.205 0.072,0.326 0.244,0.076 0.535,0.12 0.879,0.139 0.34,0.017 0.677,0 1.014,-0.055 0.332,-0.054 0.637,-0.123 0.909,-0.209 0.276,-0.085 0.494,-0.165 0.651,-0.237 -0.194,0.476 -0.569,0.874 -1.124,1.196 -0.557,0.32 -1.249,0.505 -2.074,0.555 z"
         id="path4613" />
      <g
         style="fill:#ffffff"
         id="g4615" />
      <g
         style="fill:#ffffff"
         id="g4617" />
      <g
         style="fill:#ffffff"
         id="g4619" />
      <g
         style="fill:#ffffff"
         id="g4621" />
      <g
         style="fill:#ffffff"
         id="g4623" />
      <g
         style="fill:#ffffff"
         id="g4625" />
      <g
         style="fill:#ffffff"
         id="g4627" />
      <g
         style="fill:#ffffff"
         id="g4629" />
      <g
         style="fill:#ffffff"
         id="g4631" />
      <g
         style="fill:#ffffff"
         id="g4633" />
      <g
         style="fill:#ffffff"
         id="g4635" />
      <g
         style="fill:#ffffff"
         id="g4637" />
      <g
         style="fill:#ffffff"
         id="g4639" />
      <g
         style="fill:#ffffff"
         id="g4641" />
      <g
         style="fill:#ffffff"
         id="g4643" />
    </g>
    <g
       style="fill:#ffffff"
       id="g4647" />
    <g
       style="fill:#ffffff"
       id="g4649" />
    <g
       style="fill:#ffffff"
       id="g4651" />
    <g
       style="fill:#ffffff"
       id="g4653" />
    <g
       style="fill:#ffffff"
       id="g4655" />
    <g
       style="fill:#ffffff"
       id="g4657" />
    <g
       style="fill:#ffffff"
       id="g4659" />
    <g
       style="fill:#ffffff"
       id="g4661" />
    <g
       style="fill:#ffffff"
       id="g4663" />
    <g
       style="fill:#ffffff"
       id="g4665" />
    <g
       style="fill:#ffffff"
       id="g4667" />
    <g
       style="fill:#ffffff"
       id="g4669" />
    <g
       style="fill:#ffffff"
       id="g4671" />
    <g
       style="fill:#ffffff"
       id="g4673" />
    <g
       style="fill:#ffffff"
       id="g4675" />
  </g>
</svg>
