<?xml version="1.0" encoding="UTF-8" standalone="no"?>
<svg
   xmlns:dc="http://purl.org/dc/elements/1.1/"
   xmlns:cc="http://creativecommons.org/ns#"
   xmlns:rdf="http://www.w3.org/1999/02/22-rdf-syntax-ns#"
   xmlns:svg="http://www.w3.org/2000/svg"
   xmlns="http://www.w3.org/2000/svg"
   xmlns:sodipodi="http://sodipodi.sourceforge.net/DTD/sodipodi-0.dtd"
   xmlns:inkscape="http://www.inkscape.org/namespaces/inkscape"
   inkscape:version="1.0alpha (9dee831, 2019-01-15)"
   height="254.32175"
   width="254.32175"
   sodipodi:docname="youtube_logos_svg.svg"
   xml:space="preserve"
   viewBox="0 0 254.32174 254.32174"
   y="0px"
   x="0px"
   id="Capa_1"
   version="1.1"><metadata
   id="metadata39">
  <rdf:RDF>
    <cc:Work
       rdf:about="">
      <dc:format>image/svg+xml</dc:format>
      <dc:type
         rdf:resource="http://purl.org/dc/dcmitype/StillImage" />
    </cc:Work>
  </rdf:RDF>
</metadata>
<defs
   id="defs37" />
<sodipodi:namedview
   inkscape:current-layer="Capa_1"
   inkscape:window-maximized="0"
   inkscape:window-y="53"
   inkscape:window-x="374"
   inkscape:cy="144.45968"
   inkscape:cx="129.16945"
   inkscape:zoom="2.65659"
   showgrid="false"
   id="namedview35"
   inkscape:window-height="1356"
   inkscape:window-width="2105"
   inkscape:pageshadow="2"
   inkscape:pageopacity="0"
   guidetolerance="10"
   gridtolerance="10"
   objecttolerance="10"
   borderopacity="1"
   inkscape:document-rotation="0"
   bordercolor="#666666"
   pagecolor="#ffffff" />


<g
   transform="translate(-181.58,209.31859)"
   id="g4">
</g>

<g
   transform="translate(-181.58,209.31859)"
   id="g6">
</g>

<g
   transform="translate(-181.58,209.31859)"
   id="g8">
</g>

<g
   transform="translate(-181.58,209.31859)"
   id="g10">
</g>

<g
   transform="translate(-181.58,209.31859)"
   id="g12">
</g>

<g
   transform="translate(-181.58,209.31859)"
   id="g14">
</g>

<g
   transform="translate(-181.58,209.31859)"
   id="g16">
</g>

<g
   transform="translate(-181.58,209.31859)"
   id="g18">
</g>

<g
   transform="translate(-181.58,209.31859)"
   id="g20">
</g>

<g
   transform="translate(-181.58,209.31859)"
   id="g22">
</g>

<g
   transform="translate(-181.58,209.31859)"
   id="g24">
</g>

<g
   transform="translate(-181.58,209.31859)"
   id="g26">
</g>

<g
   transform="translate(-181.58,209.31859)"
   id="g28">
</g>

<g
   transform="translate(-181.58,209.31859)"
   id="g30">
</g>

<g
   transform="translate(-181.58,209.31859)"
   id="g32">
</g>

<circle
   r="127.16087"
   cy="127.16087"
   cx="127.16087"
   id="path866"
   style="fill:#000000;stroke:#000000;stroke-width:0;stroke-linejoin:bevel" />
<path
   style="fill:#ffffff;stroke-width:0.472067"
   inkscape:connector-curvature="0"
   id="path2"
   d="m 206.63315,74.262419 c -0.96633,-3.6977 -4.06639,-6.44796 -7.85237,-6.96677 -23.76057,-3.25679 -47.86008,-4.90808 -71.63009,-4.90808 -23.76953,0 -47.863851,1.65129 -71.611201,4.90855 -3.78598,0.51928 -6.88557,3.26954 -7.8519,6.96677 -9.30161,35.595301 -9.30161,70.201611 0,105.796431 0.96633,3.69723 4.06639,6.44797 7.85284,6.96677 23.76341,3.25679 47.864811,4.90808 71.633871,4.90808 23.77,0 47.86243,-1.65129 71.60695,-4.90855 3.78598,-0.51928 6.88511,-3.26907 7.85142,-6.96583 9.30351,-35.59104 9.30351,-70.19735 4.8e-4,-105.797371 z m -49.24323,59.569231 -35.10152,26.96969 c -1.4974,1.15137 -3.3073,1.74145 -5.12665,1.74145 -1.26561,0 -2.53689,-0.28513 -3.71753,-0.86624 -2.87442,-1.4162 -4.69329,-4.34208 -4.69329,-7.54647 v -53.93889 c 0,-3.204861 1.81935,-6.130741 4.69329,-7.546461 2.87536,-1.41621 6.30304,-1.07679 8.84418,0.87521 l 35.10152,26.969201 c 2.07378,1.59228 3.28842,4.0579 3.28842,6.67126 -4.8e-4,2.61336 -1.2151,5.07897 -3.28842,6.67125 z" />
</svg>
